<?xml version="1.0" standalone="no"?>
<!DOCTYPE svg PUBLIC "-//W3C//DTD SVG 20010904//EN"
 "http://www.w3.org/TR/2001/REC-SVG-20010904/DTD/svg10.dtd">
<svg version="1.0" xmlns="http://www.w3.org/2000/svg"
 width="700.000000pt" height="700.000000pt" viewBox="0 0 700.000000 700.000000"
 preserveAspectRatio="xMidYMid meet">
<metadata>
Created by potrace 1.11, written by Peter Selinger 2001-2013
</metadata>
<g transform="translate(0.000000,700.000000) scale(0.100000,-0.100000)"
fill="#000000" stroke="none">
<path d="M3340 6989 c-214 -28 -371 -90 -578 -229 -135 -91 -179 -126 -282
-230 -227 -226 -344 -420 -409 -677 -59 -230 -42 -537 46 -815 4 -15 -1 -18
-29 -18 -44 0 -95 -34 -122 -80 -17 -28 -21 -54 -22 -135 -2 -116 17 -223 72
-395 65 -205 130 -321 209 -370 27 -17 34 -29 40 -66 4 -26 10 -56 15 -68 4
-11 13 -39 20 -61 149 -489 570 -895 1015 -980 80 -16 296 -17 358 -3 23 5 49
11 57 13 99 21 263 97 380 176 142 97 244 199 388 389 70 92 175 312 213 443
26 91 27 98 28 123 1 14 12 26 31 34 60 25 132 136 182 279 27 79 76 249 83
291 20 108 23 142 21 211 -3 120 -48 184 -134 196 -23 3 -42 7 -42 9 0 2 11
47 25 101 13 54 27 121 31 148 3 28 8 57 9 66 26 135 26 501 1 624 -41 196
-89 298 -191 400 -75 75 -134 111 -195 121 -30 5 -42 14 -58 43 -20 35 -142
166 -192 206 -135 108 -336 200 -525 241 -86 18 -346 26 -445 13z"/>
<path d="M2400 2989 c-389 -251 -872 -469 -1260 -569 -314 -81 -479 -268 -564
-640 -4 -18 -18 -115 -22 -150 -4 -44 -4 -304 1 -345 2 -22 7 -78 10 -125 3
-47 8 -96 10 -110 2 -14 7 -56 10 -95 4 -38 8 -81 10 -95 2 -14 7 -52 10 -85
8 -77 15 -83 225 -189 245 -124 521 -232 834 -326 122 -37 463 -121 546 -135
19 -3 46 -8 60 -10 44 -9 144 -27 170 -30 8 -2 38 -6 65 -9 28 -4 57 -9 65
-11 8 -2 38 -6 65 -10 28 -3 66 -7 85 -10 19 -2 67 -7 105 -11 39 -3 84 -8
100 -9 227 -27 900 -27 1145 0 19 2 67 6 105 9 39 3 81 8 95 10 14 3 66 10
115 16 400 50 737 128 1155 266 91 30 174 59 185 64 23 10 125 51 205 82 85
33 425 206 443 226 14 15 25 81 42 252 3 24 7 65 9 90 3 25 8 81 11 125 4 44
9 96 11 115 5 48 5 298 0 335 -2 17 -7 57 -11 90 -3 32 -8 62 -11 66 -2 4 -6
24 -10 44 -17 111 -93 277 -168 371 -99 122 -193 175 -441 249 -184 55 -375
122 -483 171 -29 13 -55 24 -58 24 -7 0 -327 160 -399 199 -76 42 -218 127
-270 163 -22 15 -43 24 -47 20 -3 -4 -43 -124 -88 -267 -45 -143 -95 -303
-112 -355 -16 -52 -38 -122 -49 -155 -43 -141 -149 -475 -274 -865 -104 -327
-120 -369 -122 -327 -1 6 -24 77 -53 157 -29 80 -62 174 -75 210 -31 91 -91
260 -103 290 -8 21 -3 35 38 95 245 365 256 618 32 722 -107 50 -255 60 -410
29 -46 -10 -128 -53 -161 -86 -97 -98 -98 -247 -3 -453 34 -72 115 -212 132
-227 3 -3 12 -16 21 -30 15 -24 12 -35 -57 -230 -41 -113 -95 -267 -121 -343
-26 -75 -50 -137 -53 -137 -4 0 -37 93 -74 207 -37 115 -76 233 -86 263 -10
30 -27 84 -38 120 -19 61 -63 201 -217 685 -35 110 -94 295 -130 410 -91 287
-88 279 -95 286 -3 4 -25 -6 -50 -22z"/>
</g>
</svg>
